<mxfile host="Electron" agent="Mozilla/5.0 (Windows NT 10.0; Win64; x64) AppleWebKit/537.36 (KHTML, like Gecko) draw.io/24.7.17 Chrome/128.0.6613.36 Electron/32.0.1 Safari/537.36" version="24.7.17">
  <diagram id="C5RBs43oDa-KdzZeNtuy" name="Page-1">
    <mxGraphModel dx="1412" dy="817" grid="1" gridSize="10" guides="1" tooltips="1" connect="1" arrows="1" fold="1" page="1" pageScale="1" pageWidth="827" pageHeight="1169" math="0" shadow="0">
      <root>
        <mxCell id="WIyWlLk6GJQsqaUBKTNV-0" />
        <mxCell id="WIyWlLk6GJQsqaUBKTNV-1" parent="WIyWlLk6GJQsqaUBKTNV-0" />
        <mxCell id="Qqysd3JRenypAn6YxN1Z-0" style="edgeStyle=orthogonalEdgeStyle;rounded=0;orthogonalLoop=1;jettySize=auto;html=1;" parent="WIyWlLk6GJQsqaUBKTNV-1" source="Qqysd3JRenypAn6YxN1Z-7" edge="1">
          <mxGeometry relative="1" as="geometry">
            <mxPoint x="380" y="200" as="targetPoint" />
          </mxGeometry>
        </mxCell>
        <mxCell id="Qqysd3JRenypAn6YxN1Z-1" value="&lt;i&gt;Bắt Đầu&lt;/i&gt;" style="ellipse;whiteSpace=wrap;html=1;" parent="WIyWlLk6GJQsqaUBKTNV-1" vertex="1">
          <mxGeometry x="320" y="60" width="120" height="80" as="geometry" />
        </mxCell>
        <mxCell id="Qqysd3JRenypAn6YxN1Z-2" style="edgeStyle=orthogonalEdgeStyle;rounded=0;orthogonalLoop=1;jettySize=auto;html=1;exitX=0.5;exitY=1;exitDx=0;exitDy=0;entryX=0.5;entryY=0;entryDx=0;entryDy=0;" parent="WIyWlLk6GJQsqaUBKTNV-1" source="Qqysd3JRenypAn6YxN1Z-7" target="Qqysd3JRenypAn6YxN1Z-5" edge="1">
          <mxGeometry relative="1" as="geometry" />
        </mxCell>
        <mxCell id="Qqysd3JRenypAn6YxN1Z-3" value="sai" style="edgeStyle=orthogonalEdgeStyle;rounded=0;orthogonalLoop=1;jettySize=auto;html=1;" parent="WIyWlLk6GJQsqaUBKTNV-1" source="Qqysd3JRenypAn6YxN1Z-5" target="Qqysd3JRenypAn6YxN1Z-9" edge="1">
          <mxGeometry relative="1" as="geometry" />
        </mxCell>
        <mxCell id="Cw7RLp8YwEGCPihCUp9C-0" value="đúng" style="edgeStyle=orthogonalEdgeStyle;rounded=0;orthogonalLoop=1;jettySize=auto;html=1;" edge="1" parent="WIyWlLk6GJQsqaUBKTNV-1" source="Qqysd3JRenypAn6YxN1Z-5" target="Qqysd3JRenypAn6YxN1Z-12">
          <mxGeometry relative="1" as="geometry" />
        </mxCell>
        <mxCell id="Qqysd3JRenypAn6YxN1Z-5" value="a = 0" style="rhombus;whiteSpace=wrap;html=1;" parent="WIyWlLk6GJQsqaUBKTNV-1" vertex="1">
          <mxGeometry x="330" y="240" width="100" height="100" as="geometry" />
        </mxCell>
        <mxCell id="Qqysd3JRenypAn6YxN1Z-6" value="" style="edgeStyle=orthogonalEdgeStyle;rounded=0;orthogonalLoop=1;jettySize=auto;html=1;" parent="WIyWlLk6GJQsqaUBKTNV-1" source="Qqysd3JRenypAn6YxN1Z-1" target="Qqysd3JRenypAn6YxN1Z-7" edge="1">
          <mxGeometry relative="1" as="geometry">
            <mxPoint x="380" y="200" as="targetPoint" />
            <mxPoint x="380" y="140" as="sourcePoint" />
          </mxGeometry>
        </mxCell>
        <mxCell id="Qqysd3JRenypAn6YxN1Z-7" value="Nhập a,b,c" style="shape=parallelogram;perimeter=parallelogramPerimeter;whiteSpace=wrap;html=1;fixedSize=1;fontStyle=0" parent="WIyWlLk6GJQsqaUBKTNV-1" vertex="1">
          <mxGeometry x="295" y="170" width="170" height="60" as="geometry" />
        </mxCell>
        <mxCell id="Qqysd3JRenypAn6YxN1Z-8" value="" style="edgeStyle=orthogonalEdgeStyle;rounded=0;orthogonalLoop=1;jettySize=auto;html=1;" parent="WIyWlLk6GJQsqaUBKTNV-1" source="Qqysd3JRenypAn6YxN1Z-9" target="Qqysd3JRenypAn6YxN1Z-24" edge="1">
          <mxGeometry relative="1" as="geometry" />
        </mxCell>
        <mxCell id="Qqysd3JRenypAn6YxN1Z-9" value="&#xa;&lt;span style=&quot;color: rgb(0, 0, 0); font-family: Arial; font-size: 16px; font-style: normal; font-variant-ligatures: normal; font-variant-caps: normal; font-weight: 400; letter-spacing: normal; orphans: 2; text-align: justify; text-indent: 0px; text-transform: none; widows: 2; word-spacing: 0px; -webkit-text-stroke-width: 0px; white-space: normal; background-color: rgb(255, 255, 255); text-decoration-thickness: initial; text-decoration-style: initial; text-decoration-color: initial; display: inline !important; float: none;&quot;&gt;Δ = b2&amp;nbsp;- 4ac&lt;/span&gt;&#xa;&#xa;" style="rhombus;whiteSpace=wrap;html=1;" parent="WIyWlLk6GJQsqaUBKTNV-1" vertex="1">
          <mxGeometry x="160" y="235" width="110" height="105" as="geometry" />
        </mxCell>
        <mxCell id="Qqysd3JRenypAn6YxN1Z-10" value="đúng" style="edgeStyle=orthogonalEdgeStyle;rounded=0;orthogonalLoop=1;jettySize=auto;html=1;" parent="WIyWlLk6GJQsqaUBKTNV-1" source="Qqysd3JRenypAn6YxN1Z-12" target="Qqysd3JRenypAn6YxN1Z-15" edge="1">
          <mxGeometry relative="1" as="geometry" />
        </mxCell>
        <mxCell id="Qqysd3JRenypAn6YxN1Z-11" value="sai" style="edgeStyle=orthogonalEdgeStyle;rounded=0;orthogonalLoop=1;jettySize=auto;html=1;" parent="WIyWlLk6GJQsqaUBKTNV-1" source="Qqysd3JRenypAn6YxN1Z-12" target="Qqysd3JRenypAn6YxN1Z-21" edge="1">
          <mxGeometry relative="1" as="geometry" />
        </mxCell>
        <mxCell id="Qqysd3JRenypAn6YxN1Z-12" value="b=0" style="rhombus;whiteSpace=wrap;html=1;" parent="WIyWlLk6GJQsqaUBKTNV-1" vertex="1">
          <mxGeometry x="490" y="240" width="110" height="100" as="geometry" />
        </mxCell>
        <mxCell id="Qqysd3JRenypAn6YxN1Z-13" value="sai" style="edgeStyle=orthogonalEdgeStyle;rounded=0;orthogonalLoop=1;jettySize=auto;html=1;" parent="WIyWlLk6GJQsqaUBKTNV-1" source="Qqysd3JRenypAn6YxN1Z-15" target="Qqysd3JRenypAn6YxN1Z-17" edge="1">
          <mxGeometry relative="1" as="geometry" />
        </mxCell>
        <mxCell id="Qqysd3JRenypAn6YxN1Z-14" value="đúng" style="edgeStyle=orthogonalEdgeStyle;rounded=0;orthogonalLoop=1;jettySize=auto;html=1;" parent="WIyWlLk6GJQsqaUBKTNV-1" source="Qqysd3JRenypAn6YxN1Z-15" target="Qqysd3JRenypAn6YxN1Z-19" edge="1">
          <mxGeometry relative="1" as="geometry" />
        </mxCell>
        <mxCell id="Qqysd3JRenypAn6YxN1Z-15" value="c=0" style="rhombus;whiteSpace=wrap;html=1;" parent="WIyWlLk6GJQsqaUBKTNV-1" vertex="1">
          <mxGeometry x="670" y="240" width="100" height="100" as="geometry" />
        </mxCell>
        <mxCell id="Qqysd3JRenypAn6YxN1Z-16" style="edgeStyle=orthogonalEdgeStyle;rounded=0;orthogonalLoop=1;jettySize=auto;html=1;entryX=1;entryY=0.5;entryDx=0;entryDy=0;exitX=0.5;exitY=1;exitDx=0;exitDy=0;" parent="WIyWlLk6GJQsqaUBKTNV-1" source="Qqysd3JRenypAn6YxN1Z-17" target="Qqysd3JRenypAn6YxN1Z-35" edge="1">
          <mxGeometry relative="1" as="geometry" />
        </mxCell>
        <mxCell id="Qqysd3JRenypAn6YxN1Z-17" value="phương trình vô nghiệm" style="shape=parallelogram;perimeter=parallelogramPerimeter;whiteSpace=wrap;html=1;fixedSize=1;" parent="WIyWlLk6GJQsqaUBKTNV-1" vertex="1">
          <mxGeometry x="660" y="370" width="120" height="60" as="geometry" />
        </mxCell>
        <mxCell id="Qqysd3JRenypAn6YxN1Z-18" style="edgeStyle=orthogonalEdgeStyle;rounded=0;orthogonalLoop=1;jettySize=auto;html=1;entryX=1;entryY=0.5;entryDx=0;entryDy=0;exitX=0.5;exitY=1;exitDx=0;exitDy=0;" parent="WIyWlLk6GJQsqaUBKTNV-1" source="Qqysd3JRenypAn6YxN1Z-19" target="Qqysd3JRenypAn6YxN1Z-35" edge="1">
          <mxGeometry relative="1" as="geometry" />
        </mxCell>
        <mxCell id="Qqysd3JRenypAn6YxN1Z-19" value="pt vô số nghiệm" style="shape=parallelogram;perimeter=parallelogramPerimeter;whiteSpace=wrap;html=1;fixedSize=1;" parent="WIyWlLk6GJQsqaUBKTNV-1" vertex="1">
          <mxGeometry x="827" y="260" width="120" height="60" as="geometry" />
        </mxCell>
        <mxCell id="Qqysd3JRenypAn6YxN1Z-20" style="edgeStyle=orthogonalEdgeStyle;rounded=0;orthogonalLoop=1;jettySize=auto;html=1;entryX=0.5;entryY=0;entryDx=0;entryDy=0;" parent="WIyWlLk6GJQsqaUBKTNV-1" source="Qqysd3JRenypAn6YxN1Z-21" target="Qqysd3JRenypAn6YxN1Z-35" edge="1">
          <mxGeometry relative="1" as="geometry" />
        </mxCell>
        <mxCell id="Qqysd3JRenypAn6YxN1Z-21" value="phương trình có nghiệm x=-c/b" style="shape=parallelogram;perimeter=parallelogramPerimeter;whiteSpace=wrap;html=1;fixedSize=1;" parent="WIyWlLk6GJQsqaUBKTNV-1" vertex="1">
          <mxGeometry x="485" y="370" width="120" height="60" as="geometry" />
        </mxCell>
        <mxCell id="Qqysd3JRenypAn6YxN1Z-22" value="đúng" style="edgeStyle=orthogonalEdgeStyle;rounded=0;orthogonalLoop=1;jettySize=auto;html=1;" parent="WIyWlLk6GJQsqaUBKTNV-1" source="Qqysd3JRenypAn6YxN1Z-24" target="Qqysd3JRenypAn6YxN1Z-26" edge="1">
          <mxGeometry relative="1" as="geometry" />
        </mxCell>
        <mxCell id="Qqysd3JRenypAn6YxN1Z-23" value="sai" style="edgeStyle=orthogonalEdgeStyle;rounded=0;orthogonalLoop=1;jettySize=auto;html=1;" parent="WIyWlLk6GJQsqaUBKTNV-1" source="Qqysd3JRenypAn6YxN1Z-24" target="Qqysd3JRenypAn6YxN1Z-30" edge="1">
          <mxGeometry relative="1" as="geometry" />
        </mxCell>
        <mxCell id="Qqysd3JRenypAn6YxN1Z-24" value="&lt;br&gt;&lt;span style=&quot;color: rgb(0, 0, 0); font-family: Arial; font-size: 16px; font-style: normal; font-variant-ligatures: normal; font-variant-caps: normal; font-weight: 400; letter-spacing: normal; orphans: 2; text-align: justify; text-indent: 0px; text-transform: none; widows: 2; word-spacing: 0px; -webkit-text-stroke-width: 0px; white-space: normal; background-color: rgb(255, 255, 255); text-decoration-thickness: initial; text-decoration-style: initial; text-decoration-color: initial; display: inline !important; float: none;&quot;&gt;Δ &amp;lt; 0&lt;/span&gt;&lt;div&gt;&lt;br/&gt;&lt;/div&gt;" style="rhombus;whiteSpace=wrap;html=1;" parent="WIyWlLk6GJQsqaUBKTNV-1" vertex="1">
          <mxGeometry x="160" y="420" width="110" height="105" as="geometry" />
        </mxCell>
        <mxCell id="Qqysd3JRenypAn6YxN1Z-25" style="edgeStyle=orthogonalEdgeStyle;rounded=0;orthogonalLoop=1;jettySize=auto;html=1;exitX=1;exitY=0.5;exitDx=0;exitDy=0;" parent="WIyWlLk6GJQsqaUBKTNV-1" source="Qqysd3JRenypAn6YxN1Z-26" target="Qqysd3JRenypAn6YxN1Z-35" edge="1">
          <mxGeometry relative="1" as="geometry" />
        </mxCell>
        <mxCell id="Qqysd3JRenypAn6YxN1Z-26" value="phương trình vô nghiệm" style="shape=parallelogram;perimeter=parallelogramPerimeter;whiteSpace=wrap;html=1;fixedSize=1;" parent="WIyWlLk6GJQsqaUBKTNV-1" vertex="1">
          <mxGeometry x="320" y="442.5" width="120" height="60" as="geometry" />
        </mxCell>
        <mxCell id="Qqysd3JRenypAn6YxN1Z-27" value="đúng" style="edgeStyle=orthogonalEdgeStyle;rounded=0;orthogonalLoop=1;jettySize=auto;html=1;" parent="WIyWlLk6GJQsqaUBKTNV-1" source="Qqysd3JRenypAn6YxN1Z-30" edge="1">
          <mxGeometry relative="1" as="geometry">
            <mxPoint x="325" y="635" as="targetPoint" />
          </mxGeometry>
        </mxCell>
        <mxCell id="Qqysd3JRenypAn6YxN1Z-28" value="" style="edgeStyle=orthogonalEdgeStyle;rounded=0;orthogonalLoop=1;jettySize=auto;html=1;" parent="WIyWlLk6GJQsqaUBKTNV-1" source="Qqysd3JRenypAn6YxN1Z-30" target="Qqysd3JRenypAn6YxN1Z-34" edge="1">
          <mxGeometry relative="1" as="geometry" />
        </mxCell>
        <mxCell id="Qqysd3JRenypAn6YxN1Z-29" value="sai" style="edgeLabel;html=1;align=center;verticalAlign=middle;resizable=0;points=[];" parent="Qqysd3JRenypAn6YxN1Z-28" connectable="0" vertex="1">
          <mxGeometry x="-0.2" y="1" relative="1" as="geometry">
            <mxPoint as="offset" />
          </mxGeometry>
        </mxCell>
        <mxCell id="Qqysd3JRenypAn6YxN1Z-30" value="&lt;br&gt;&lt;span style=&quot;color: rgb(0, 0, 0); font-family: Arial; font-size: 16px; font-style: normal; font-variant-ligatures: normal; font-variant-caps: normal; font-weight: 400; letter-spacing: normal; orphans: 2; text-align: justify; text-indent: 0px; text-transform: none; widows: 2; word-spacing: 0px; -webkit-text-stroke-width: 0px; white-space: normal; background-color: rgb(255, 255, 255); text-decoration-thickness: initial; text-decoration-style: initial; text-decoration-color: initial; display: inline !important; float: none;&quot;&gt;Δ = 0&lt;/span&gt;&lt;div&gt;&lt;br&gt;&lt;/div&gt;" style="rhombus;whiteSpace=wrap;html=1;" parent="WIyWlLk6GJQsqaUBKTNV-1" vertex="1">
          <mxGeometry x="160" y="580" width="110" height="105" as="geometry" />
        </mxCell>
        <mxCell id="Qqysd3JRenypAn6YxN1Z-31" style="edgeStyle=orthogonalEdgeStyle;rounded=0;orthogonalLoop=1;jettySize=auto;html=1;entryX=0.5;entryY=0;entryDx=0;entryDy=0;" parent="WIyWlLk6GJQsqaUBKTNV-1" source="Qqysd3JRenypAn6YxN1Z-32" target="Qqysd3JRenypAn6YxN1Z-35" edge="1">
          <mxGeometry relative="1" as="geometry" />
        </mxCell>
        <mxCell id="Qqysd3JRenypAn6YxN1Z-32" value="phương trình có nghiệm kép&lt;div&gt;x1=x2=-b/2a&lt;/div&gt;" style="shape=parallelogram;perimeter=parallelogramPerimeter;whiteSpace=wrap;html=1;fixedSize=1;" parent="WIyWlLk6GJQsqaUBKTNV-1" vertex="1">
          <mxGeometry x="320" y="600" width="120" height="60" as="geometry" />
        </mxCell>
        <mxCell id="Qqysd3JRenypAn6YxN1Z-33" value="" style="edgeStyle=orthogonalEdgeStyle;rounded=0;orthogonalLoop=1;jettySize=auto;html=1;" parent="WIyWlLk6GJQsqaUBKTNV-1" source="Qqysd3JRenypAn6YxN1Z-34" target="Qqysd3JRenypAn6YxN1Z-35" edge="1">
          <mxGeometry relative="1" as="geometry" />
        </mxCell>
        <mxCell id="Qqysd3JRenypAn6YxN1Z-34" value="phương trình có 2 nghiệm&lt;div&gt;x1=&lt;span style=&quot;font-family: Arial; font-size: 16px; text-align: justify; background-color: rgb(255, 255, 255);&quot;&gt;&amp;nbsp;&lt;/span&gt;&lt;img style=&quot;margin: 10px 0px; padding: 0px; border: 0px; font-variant-numeric: inherit; font-variant-east-asian: inherit; font-variant-alternates: inherit; font-variant-position: inherit; font-variant-emoji: inherit; font-stretch: inherit; font-size: 16px; line-height: normal; font-family: Arial; font-optical-sizing: inherit; font-size-adjust: inherit; font-kerning: inherit; font-feature-settings: inherit; font-variation-settings: inherit; vertical-align: middle; max-width: 100%; text-align: justify; background-color: rgb(255, 255, 255); height: inherit !important;&quot; data-adbro-processed=&quot;true&quot; class=&quot;lazy&quot; data-src=&quot;https://latex.codecogs.com/gif.latex?%5Cfrac%7B-b%20&amp;amp;plus;%5Csqrt%7B%5CDelta%20%7D%20%7D%7B2a%7D&quot; src=&quot;https://latex.codecogs.com/gif.latex?%5Cfrac%7B-b%20&amp;amp;plus;%5Csqrt%7B%5CDelta%20%7D%20%7D%7B2a%7D&quot; alt=&quot;\frac{-b +\sqrt{\Delta } }{2a}&quot;&gt;&lt;/div&gt;&lt;div&gt;x2=&lt;span style=&quot;font-family: Arial; font-size: 16px; text-align: justify; background-color: rgb(255, 255, 255);&quot;&gt;&amp;nbsp;&lt;/span&gt;&lt;img style=&quot;margin: 10px 0px; padding: 0px; border: 0px; font-variant-numeric: inherit; font-variant-east-asian: inherit; font-variant-alternates: inherit; font-variant-position: inherit; font-variant-emoji: inherit; font-stretch: inherit; font-size: 16px; line-height: normal; font-family: Arial; font-optical-sizing: inherit; font-size-adjust: inherit; font-kerning: inherit; font-feature-settings: inherit; font-variation-settings: inherit; vertical-align: middle; max-width: 100%; text-align: justify; background-color: rgb(255, 255, 255); height: inherit !important;&quot; class=&quot;lazy&quot; data-src=&quot;https://latex.codecogs.com/gif.latex?%5Cfrac%7B-b%20-%5Csqrt%7B%5CDelta%20%7D%20%7D%7B2a%7D&quot; src=&quot;https://latex.codecogs.com/gif.latex?%5Cfrac%7B-b%20-%5Csqrt%7B%5CDelta%20%7D%20%7D%7B2a%7D&quot; alt=&quot;\frac{-b -\sqrt{\Delta } }{2a}&quot;&gt;&lt;/div&gt;&lt;div&gt;&lt;br&gt;&lt;/div&gt;" style="shape=parallelogram;perimeter=parallelogramPerimeter;whiteSpace=wrap;html=1;fixedSize=1;" parent="WIyWlLk6GJQsqaUBKTNV-1" vertex="1">
          <mxGeometry x="102.5" y="740" width="217.5" height="150" as="geometry" />
        </mxCell>
        <mxCell id="Qqysd3JRenypAn6YxN1Z-35" value="kết thúc" style="ellipse;whiteSpace=wrap;html=1;" parent="WIyWlLk6GJQsqaUBKTNV-1" vertex="1">
          <mxGeometry x="480" y="775" width="110" height="80" as="geometry" />
        </mxCell>
      </root>
    </mxGraphModel>
  </diagram>
</mxfile>
